<?xml version="1.0" encoding="UTF-8" standalone="no"?>
<!DOCTYPE svg PUBLIC "-//W3C//DTD SVG 1.1//EN" "http://www.w3.org/Graphics/SVG/1.1/DTD/svg11.dtd">
<svg width="100%" height="100%" viewBox="0 0 2048 2048" version="1.1" xmlns="http://www.w3.org/2000/svg" xmlns:xlink="http://www.w3.org/1999/xlink" xml:space="preserve" xmlns:serif="http://www.serif.com/" style="fill-rule:evenodd;clip-rule:evenodd;stroke-linejoin:round;stroke-miterlimit:2;">
    <path d="M632.799,213.886C623.796,164.263 707.015,164.598 719.302,162.46C877.558,134.926 1350.085,49.261 1362.32,56.974C1568.817,187.15 1901.231,396.671 1907.261,400.94C1948.703,430.287 2048.114,479.311 2045.645,502.121C2024.971,693.125 1960.883,1264.616 1952.526,1306.903C1943.029,1354.954 1916.961,1503.897 1868.895,1548.364C1778.08,1632.378 1469.793,1874.966 1457.565,1884.088C1423.263,1909.677 1361.859,1947.263 1283.222,1955.853C1185.535,1966.524 673.322,1994.19 639.056,1989.627C622.091,1987.368 600.507,1960.976 588.15,1949.401C450.318,1820.285 158.902,1536.396 155.656,1533.44C137.546,1516.946 84.045,1469.198 53.919,1398.361C12.779,1301.629 6.267,1159.323 5.957,1153.344C4.742,1129.927 1.789,1095.196 1.362,1059.44C0.092,953.036 6.096,930.861 7.75,923.749C17.73,880.83 32.433,834.185 33.9,830.973C75.139,740.694 284.894,251.143 295.396,241.536C327.057,212.574 363.025,267.376 363.025,267.376" style="fill:rgb(212,224,217);"/>
    <path d="M372.631,892.818C374.743,883.879 398.855,845.691 404.625,834.847C417.371,810.892 454.449,767.172 407,745C378.377,731.625 359.197,750.412 343.601,780.045C326.33,812.86 311.266,830.194 278.376,899.092C275.961,904.152 277.719,924.487 289.966,934.951C318.079,958.972 375.67,987.326 389.655,988.589C395.361,989.105 429.256,980.293 429.813,957.884C430.902,914.159 382.358,898.507 372.631,892.818Z"/>
    <g transform="matrix(1,0,0,1,-13,-11)">
        <ellipse cx="514" cy="251" rx="40" ry="39"/>
    </g>
    <path d="M363.025,267.376C360.262,281.691 341.171,328.484 338.499,334.425C324.734,365.038 283.672,457.021 279.259,467.041C251.796,529.386 176.877,704.054 176.741,704.331C72.056,916.51 72.203,950.232 80.643,1013.283C98.843,1149.243 167.167,1203.899 178.848,1214.083C302.621,1321.989 671.904,1645.435 671.764,1637.151C671.344,1612.3 673.484,1572.664 674.338,1568.304C677.945,1549.896 692.058,1542.648 711.811,1541.954C718.284,1541.726 747.164,1549.452 749.266,1570.792C752.319,1601.77 750.845,1683.975 751.965,1683.867C866.51,1672.871 1266.684,1660.51 1321.654,1636.764C1338.828,1629.345 1383.502,1606.173 1399.582,1594.043C1545.081,1484.285 1695.119,1363.084 1701.657,1357.711C1737.968,1327.874 1852.943,1243.869 1845.344,1241.529C1812.442,1231.399 1767.438,1214.969 1765.415,1215.941C1727.879,1233.979 1671.834,1266.872 1667.42,1269.284C1654.774,1276.193 1637.216,1284.941 1622.246,1284.645C1602.472,1284.253 1587.919,1264.069 1585.858,1255.717C1580.453,1233.804 1590.392,1219.632 1608.439,1210.749C1632.642,1198.837 1661.417,1182.938 1662.497,1182.341C1683.299,1170.839 1756.12,1132.915 1766.107,1135.567C1803.593,1145.521 1893.709,1178.006 1893.753,1177.554C1908.351,1029.668 1970.394,532.313 1966.221,529.772C1830.934,447.39 1395.549,170.927 1369.025,158.283C1363.771,155.778 1334.639,255.682 1325.475,261.226C1286.512,284.795 1261.98,301.09 1259.809,300.539C1247.483,297.415 1177.225,373.672 1142.421,322.65C1117.087,285.511 1163.631,264.392 1170.16,260.896C1202.814,243.411 1259.743,213.345 1262.357,206.711C1277.399,168.536 1285.75,146.508 1281.583,147.304C1160.828,170.357 855.341,217.927 778.15,232.333C703.086,246.342 642.278,266.135 632.799,213.886C623.796,164.263 707.015,164.598 719.302,162.46C877.558,134.926 1350.085,49.261 1362.32,56.974C1568.817,187.15 1901.231,396.671 1907.261,400.94C1948.703,430.287 2048.114,479.311 2045.645,502.121C2024.971,693.125 1960.883,1264.616 1952.526,1306.903C1943.029,1354.954 1916.961,1503.897 1868.895,1548.364C1778.08,1632.378 1469.793,1874.966 1457.565,1884.088C1423.263,1909.677 1361.859,1947.263 1283.222,1955.853C1185.535,1966.524 673.322,1994.19 639.056,1989.627C622.091,1987.368 600.507,1960.976 588.15,1949.401C450.318,1820.285 158.902,1536.396 155.656,1533.44C137.546,1516.946 84.045,1469.198 53.919,1398.361C12.779,1301.629 6.267,1159.323 5.957,1153.344C4.742,1129.927 1.789,1095.196 1.362,1059.44C0.092,953.036 6.096,930.861 7.75,923.749C17.73,880.83 32.433,834.185 33.9,830.973C75.139,740.694 284.894,251.143 295.396,241.536C327.057,212.574 367.738,242.953 363.025,267.376Z"/>
    <path d="M96,1244C96,1244 628.363,1705.089 666.131,1737.862C666.571,1738.243 627.086,1878.759 626.498,1878.156C592.731,1843.519 241.678,1509.633 156.428,1418.607C143.516,1404.82 131.234,1376.556 123.444,1356.057C120.92,1349.415 110.423,1323.21 104.907,1297.721C97.692,1264.379 96,1244 96,1244Z" style="fill:rgb(11,59,45);"/>
    <path d="M701,1908C711.696,1869.913 732.599,1795.894 741.182,1765.512C742.848,1759.616 1159.472,1736.86 1285.8,1726.051C1375.071,1718.413 1460.848,1650.996 1480.589,1634.766C1481.983,1633.619 1589.536,1551.237 1651.804,1498.407C1679.077,1475.268 1815.51,1370.323 1864.678,1329.237C1872.756,1322.487 1846.109,1418.546 1828.343,1470.648C1821.736,1490.026 1767.354,1538.725 1748.427,1551.671C1701.567,1583.72 1525.211,1726.543 1455.444,1782.493C1443.719,1791.896 1389.368,1844.037 1312.936,1868.306C1263.984,1883.849 1228.65,1883.716 1181.141,1886.296C1147.521,1888.121 701.711,1907.42 701,1908Z" style="fill:rgb(11,59,45);"/>
    <g transform="matrix(1,0,0,1,-53,-44)">
        <path d="M626,1365C626,1365 681.571,1312.797 745.612,1248.567C745.612,1248.567 672.814,974.276 835.136,827.362C849.894,814.005 875.096,821.547 888.027,835.586C895.892,844.123 895.104,860.749 895.489,860.692C896.197,860.588 899.917,863.096 900.508,860.511C904.463,843.2 912.374,787.518 929.385,752.115C941.849,726.173 1022.927,648.385 1090.712,591.061C1098.15,584.771 1116.639,574.39 1141.071,594.994C1153.557,605.524 1156.307,633.7 1156.307,633.7C1156.307,633.7 1159.465,631.546 1161.718,625.257C1165.049,615.959 1184.171,552.123 1210.126,510.78C1220.609,494.083 1421.457,351.371 1595.368,468.916C1629.651,492.088 1677.229,653.147 1605.249,785.505C1590.455,812.708 1492.948,852.831 1492.948,852.831C1487.519,854.417 1526.18,856.513 1533.98,882.532C1538.281,896.878 1535.143,909.445 1529.823,919.356C1523.501,931.134 1387.471,1077.119 1309.847,1142.686C1303.488,1148.057 1282.232,1163.192 1253.513,1167.043C1219.679,1171.58 1182.846,1177.855 1182.846,1177.855C1182.846,1177.855 1180.987,1181.381 1183.535,1181.656C1199.71,1183.398 1218.92,1198.121 1220.284,1216.174C1221.116,1227.19 1223.074,1252.867 1127.121,1297.686C1108.399,1306.431 1037.412,1333.541 961.772,1332.225C940.385,1331.853 890.914,1323.837 852.565,1315.137C822.69,1308.359 800.958,1298.38 800.958,1298.38C800.958,1298.38 693.354,1399.008 666.752,1426.905C665.154,1428.581 649.001,1446.872 626.719,1447.079C617.656,1447.163 607.38,1443.967 599.335,1431.091C589.908,1416.002 593.972,1401.271 598.965,1392.844C605.906,1381.128 622.952,1367.861 626,1365Z"/>
    </g>
    <g transform="matrix(1,0,0,1,-53,-44)">
        <path d="M811,1184C783.561,1122.961 810.053,989.523 845.154,935.856C848.074,931.392 857.41,994.399 879.746,1019.983C886.69,1027.937 896.393,1030.363 905.844,1029.842C916.598,1029.249 928.534,1026.745 934.109,1017.988C941.636,1006.163 945.586,988.371 948.483,975.012C950.853,964.086 982.976,816.607 995.267,787.139C1005.538,762.516 1081.228,696.634 1097.969,684.383C1099.602,683.188 1113.495,728.589 1128.945,759.843C1134.023,770.116 1145.149,770.904 1152.716,772.565C1161.895,774.58 1179.471,772.03 1188.024,761.407C1199.23,747.489 1236.87,625.074 1266.009,562.973C1271.439,551.401 1326.493,519.36 1396.385,504.249C1452.358,492.148 1518.15,499.98 1545.514,525.981C1580.777,559.488 1577.072,678.918 1543.497,743.38C1542.878,744.568 1487.457,775.013 1455.19,789.143C1427.262,801.372 1394.995,811.596 1373.604,825.414C1365.734,830.498 1353.449,852.384 1360.808,868.479C1362.829,872.899 1373.292,883.543 1389.785,891.893C1409.78,902.016 1436.67,909.498 1437.193,910.909C1437.504,911.748 1339.466,1021.113 1263.699,1083.144C1252.605,1092.227 1123.983,1114.596 1052.823,1122.232C1035.186,1124.124 1021.805,1130.26 1015.727,1151.015C1007.471,1179.21 1037.003,1193.347 1044.256,1197.282C1049.46,1200.106 1091.635,1217.713 1104.814,1224.4C1106.822,1225.419 1050.157,1253.772 990.772,1257.436C944.969,1260.261 879.061,1248.536 862.983,1240.809C861.673,1240.179 1292.504,824.75 1419.898,699.909C1431.858,688.188 1436.585,651.568 1409.974,642.203C1380.316,631.766 1380.795,637.831 1335.086,678.236C1326.697,685.651 811,1184 811,1184Z" style="fill:rgb(31,138,112);"/>
    </g>
    <g transform="matrix(1,0,0,1,-53,-44)">
        <path d="M1218,896C1218,896 1254.508,924.816 1249.229,922.62L1246.185,990.369L1360.015,1005.076L1396.195,1063.084L1443.333,1149.267L1405.03,1056.495L1362.283,992.017L1269.662,971.378L1273.343,911.654L1239.058,875.363L1218,896Z"/>
    </g>
</svg>
